<svg xmlns="http://www.w3.org/2000/svg" viewBox="0 0 612 792"><g stroke="#000" stroke-width=".5" stroke-miterlimit="10"><path d="M353.8 657.6l-108-270.5M353.8 657.6l-147-559.5M353.8 657.6L204.2 235.5M353.8 657.6L126.1 605M353.8 657.6l110.8-37.9M353.8 657.6l233.5-360.4M353.8 657.6L41.6 503.5M353.8 657.6L120.5 342.3M353.8 657.6L452 255.5M353.8 657.6l-119.4-2.2M353.8 657.6l53.6-149.7M353.8 657.6l-343.1-272M353.8 657.6L539 181.3M353.8 657.6L547 533.4M353.8 657.6L103.9 158.7M353.8 657.6L326.9 202M353.8 657.6l-69.5-118.3M353.8 657.6L490 399.8M353.8 657.6L34.5 255.8M353.8 657.6L158.5 487.7M353.8 657.6l82.5-546.3M353.8 657.6l248.4-235.7M353.8 657.6L364 355.7M353.8 657.6l-31.9-581M245.8 387.2L41.6 503.6M245.8 387.2l-39-289M245.8 387.2l-41.5-151.6M245.8 387.2L126.2 605M245.8 387.2l218.8 232.6M245.8 387.2L34.5 255.8M245.8 387.2l-125.3-44.9M245.8 387.2L452 255.6M245.8 387.2l-11.4 268.2M245.8 387.2l161.6 120.7M245.8 387.2l-235.1-1.5M245.8 387.2L539 181.4M245.8 387.2l301.4 146.3M245.8 387.2L103.9 158.8M245.8 387.2l81.1-185.1M245.8 387.2l38.5 152.2M245.8 387.2L490 399.8M245.8 387.2l341.5-89.9M245.8 387.2l-87.2 100.6M245.8 387.2l190.5-275.8M245.8 387.2L602.1 422M245.8 387.2L364 355.8M245.8 387.2L322 76.7M206.8 98.2L41.6 503.6M206.8 98.2l-2.5 137.4M206.8 98.2L126.2 605M206.8 98.2l257.8 521.6M206.8 98.2L34.5 255.8M206.8 98.2l-86.3 244.1M206.8 98.2L452 255.6M206.8 98.2l27.6 557.3M206.8 98.2l200.6 409.7M206.8 98.2L10.6 385.6M206.8 98.2L539 181.4M206.8 98.2l340.4 435.2M206.8 98.2l-102.9 60.5M206.8 98.2l120.1 103.9M206.8 98.2l77.5 441.1M206.8 98.2L490 399.8M206.8 98.2l380.5 199.1M206.8 98.2l-48.2 389.5M206.8 98.2l229.5 13.1M206.8 98.2L602.1 422M206.8 98.2L364 355.7M206.8 98.2l115.1-21.5M204.2 235.5L34.5 255.8M204.2 235.5l-78 369.5M204.2 235.5l260.3 384.2M204.2 235.5l-162.6 268M204.2 235.5l-83.8 106.8M204.2 235.5l247.7 20M204.2 235.5l30.1 419.9M204.2 235.5l203.1 272.4M204.2 235.5L10.6 385.6M204.2 235.5L539 181.3M204.2 235.5L547 533.4M204.2 235.5l-100.4-76.8M204.2 235.5L326.9 202M204.2 235.5l80 303.8M204.2 235.5L490 399.8M204.2 235.5l383 61.7M204.2 235.5l-45.7 252.2M204.2 235.5l232-124.2M204.2 235.5l397.9 186.4M204.2 235.5L364 355.7M204.2 235.5L321.9 76.6M126.2 605l310.1-493.7M126.2 605l461.1-307.7M126.2 605L34.5 255.8M126.2 605l-5.8-262.7M126.2 605L452 255.5M126.2 605l108.2 50.4M126.2 605l281.2-97.1M126.2 605L10.7 385.6M126.2 605L539 181.3M126.2 605l420.9-71.6M126.2 605L104 158.7M126.2 605L327 202.1M126.2 605l158.1-65.7M126.2 605L490 399.8M126.2 605L41.7 503.5M126.2 605L322 76.6M126.2 605l338.4 14.7M126.2 605l476-183M126.2 605L364 355.7M126.2 605l32.4-117.3M464.6 619.7l122.7-322.5M464.6 619.7L41.7 503.5M464.6 619.7L120.5 342.3M464.6 619.7L452 255.5M464.6 619.7l-230.2 35.7M464.6 619.7l-57.2-111.8M464.6 619.7L10.7 385.6M464.6 619.7L539 181.3M464.6 619.7l82.5-86.3M464.6 619.7l-360.7-461M464.6 619.7L326.9 202.1M464.6 619.7l-180.3-80.4M464.6 619.7L490 399.8M464.6 619.7l-430-363.9M464.6 619.7l-306-132M464.6 619.7l-28.3-508.4M464.6 619.7L602.2 422M464.6 619.7L364 355.7M464.6 619.7L321.9 76.6M587.4 297.3L34.5 255.8M587.4 297.3l-466.9 45M587.4 297.3l-135.3-41.7M587.4 297.3l-353 358.1M587.4 297.3L407.5 507.9M587.4 297.3L10.8 385.6M587.4 297.3L539 181.4M587.4 297.3l-40.2 236.1M587.4 297.3L104 158.7M587.4 297.3L327 202.1M587.4 297.3l-303 242M587.4 297.3L490 399.8M587.4 297.3L41.8 503.6M587.4 297.3L158.7 487.7M587.4 297.3l-151-186M587.4 297.3L602.2 422M587.4 297.3l-223.3 58.4M587.4 297.3L322 76.7M41.7 503.6l78.7-161.3M41.7 503.6l410.4-248M41.7 503.6l192.7 151.8M41.7 503.6l365.7 4.3M41.7 503.6l-31-117.9M41.7 503.6L539 181.4M41.7 503.6l505.5 29.9M41.7 503.6l62.2-344.8M41.7 503.6l285.2-301.5M41.7 503.6l242.6 35.8M41.7 503.6L490 399.8M41.7 503.6l-7.1-247.7M41.7 503.6l116.9-15.8M41.7 503.6l394.6-392.2M41.7 503.6L602.2 422M41.7 503.6L364 355.8M41.7 503.6L322 76.7M120.5 342.3l331.6-86.7M120.5 342.3l114 313.2M120.5 342.3l287 165.6M120.5 342.3L10.7 385.6M120.5 342.3L539 181.4M120.5 342.3l426.7 191.1M120.5 342.3L104 158.7M120.5 342.3L327 202.1M120.5 342.3l163.9 197M120.5 342.3l369.6 57.5M120.5 342.3l-85.8-86.5M120.5 342.3l38.2 145.4M120.5 342.3l315.9-231M120.5 342.3L602.2 422M120.5 342.3l243.6 13.5M120.5 342.3L322 76.7M452.1 255.5L234.4 655.4M452.1 255.5l-44.7 252.4M452.1 255.5L10.7 385.6M452.1 255.5l87-74.2M452.1 255.5l95.1 277.9M452.1 255.5L104 158.7M452.1 255.5L326.9 202M452.1 255.5L284.2 539.3M452.1 255.5L490 399.8M452.1 255.5l-417.5.3M452.1 255.5L158.7 487.7M452.1 255.5l-15.8-144.2M452.1 255.5l150.1 166.4M452.1 255.5L364 355.7M452.1 255.5L322 76.6M234.4 655.4l201.9-544.1M234.4 655.4L34.5 255.8M234.4 655.4l173-147.5M234.4 655.4L10.7 385.6M234.4 655.4L539 181.3M234.4 655.4l312.8-122M234.4 655.4L103.9 158.7M234.4 655.4L326.9 202M234.4 655.4l49.9-116.1M234.4 655.4L490 399.8M234.4 655.4L322 76.6M234.4 655.4l367.8-233.5M234.4 655.4L364 355.7M234.4 655.4l-75.8-167.7M407.4 507.9L34.5 255.8M407.4 507.9L10.6 385.6M407.4 507.9L539 181.4M407.4 507.9l139.8 25.5M407.4 507.9L103.9 158.7M407.4 507.9l-80.5-305.8M407.4 507.9l-123.1 31.4M407.4 507.9L490 399.8M407.4 507.9l-248.8-20.2M407.4 507.9l28.9-396.6M407.4 507.9L602.2 422M407.4 507.9L364 355.7M407.4 507.9L322 76.7M10.7 385.6L539 181.3M10.7 385.6l536.5 147.8M10.7 385.6l93.2-226.9M10.7 385.6l316.2-183.5M10.7 385.6l273.6 153.7M10.7 385.6L490 399.8M10.7 385.6l23.9-129.8M10.7 385.6L322 76.6M10.7 385.6l425.6-274.3M10.7 385.6L602.2 422M10.7 385.6L364 355.7M10.7 385.6l147.9 102.1M539 181.4L34.5 255.8M539 181.4l8.1 352M539 181.4l-435-22.6M539 181.4l-212.2 20.7M539 181.4l-254.7 358M539 181.4l-49 218.4M539 181.4L322 76.7M539 181.4l-102.7-70.1M539 181.4L602.2 422M539 181.4L364 355.8M539 181.4L158.7 487.8M547.2 533.4L34.5 255.8M547.2 533.4L104 158.7M547.2 533.4L326.9 202.1M547.2 533.4l-262.9 5.9M547.2 533.4L490 399.8M547.2 533.4l-388.5-45.7M547.2 533.4l-111-422.1M547.2 533.4l55-111.4M547.2 533.4L364 355.7M547.2 533.4L322 76.7M104 158.7l223 43.4M104 158.7l180.4 380.6M104 158.7l386 241.1M104 158.7l-69.3 97.1M104 158.7l54.7 329M104 158.7l332.4-47.4M104 158.7L602.2 422M104 158.7l260.1 197M104 158.7l218-82.1M326.9 202.1l-42.6 337.2M326.9 202.1L490 399.8M326.9 202.1L34.5 255.8M326.9 202.1L322 76.7M326.9 202.1l109.4-90.8M326.9 202.1L602.1 422M326.9 202.1L364 355.7M326.9 202.1L158.5 487.7M284.2 539.3l152-428M284.2 539.3L34.5 255.8M284.2 539.3L490 399.8M284.2 539.3L322 76.6M284.2 539.3L602.1 422M284.2 539.3L364 355.7M284.2 539.3l-125.7-51.6M490 399.8l-455.4-144M490 399.8l-331.4 87.9M490 399.8l-53.7-288.5M490 399.8L602.2 422M490 399.8l-126-44.1M490 399.8L322 76.7M34.5 255.8l124.1 231.9M34.5 255.8l401.7-144.5M34.5 255.8L602.1 422M34.5 255.8l329.4 99.9M34.5 255.8L321.9 76.6M158.7 487.7l277.7-376.4M158.7 487.7L602.2 422M158.7 487.7l205.4-132M158.7 487.7L322 76.6M436.2 111.3L602.1 422M436.2 111.3L364 355.7M436.2 111.3L322 76.6M602.2 422L322 76.7M602.2 422L364 355.7M364 355.7L322 76.6"/></g><circle cx="353.8" cy="657.6" r="8.5"/><circle cx="245.8" cy="387.2" r="7.3"/><circle cx="206.8" cy="98.2" r="7.1"/><circle cx="204.2" cy="235.5" r="5.5"/><circle cx="126.2" cy="605" r="6.6"/><circle cx="464.6" cy="619.7" r="6.6"/><circle cx="587.4" cy="297.3" r="6.8"/><circle cx="41.7" cy="503.6" r="7.4"/><circle cx="120.5" cy="342.3" r="4.5"/><circle cx="452.1" cy="255.5" r="4.4"/><circle cx="234.4" cy="655.4" r="5.1"/><circle cx="407.4" cy="507.9" r="8.7"/><circle cx="10.7" cy="385.6" r="6.4"/><circle cx="539" cy="181.4" r="6.7"/><circle cx="547.2" cy="533.4" r="5.3"/><circle cx="104" cy="158.7" r="6.2"/><circle cx="326.9" cy="202.1" r="6.2"/><circle cx="284.2" cy="539.3" r="7"/><circle cx="490" cy="399.8" r="7"/><circle cx="34.5" cy="255.8" r="5.6"/><circle cx="158.7" cy="487.7" r="7.1"/><circle cx="436.2" cy="111.3" r="6.7"/><circle cx="602.2" cy="422" r="5.6"/><circle cx="364" cy="355.7" r="7.1"/><circle cx="322" cy="76.7" r="4.4"/></svg>